<svg xmlns="http://www.w3.org/2000/svg" xmlns:xlink="http://www.w3.org/1999/xlink" width="500" zoomAndPan="magnify" viewBox="0 0 375 149.999998" height="200" preserveAspectRatio="xMidYMid meet" version="1.0"><defs><g/><clipPath id="f59c4914a3"><path d="M 294.773438 53.996094 L 333.972656 53.996094 L 333.972656 93.195312 L 294.773438 93.195312 Z M 294.773438 53.996094 " clip-rule="nonzero"/></clipPath><clipPath id="2aebb8edfd"><path d="M 314.375 53.996094 C 303.550781 53.996094 294.773438 62.773438 294.773438 73.597656 C 294.773438 84.421875 303.550781 93.195312 314.375 93.195312 C 325.199219 93.195312 333.972656 84.421875 333.972656 73.597656 C 333.972656 62.773438 325.199219 53.996094 314.375 53.996094 Z M 314.375 53.996094 " clip-rule="nonzero"/></clipPath><clipPath id="deb6cb7962"><path d="M 300.445312 62.042969 L 311.996094 62.042969 L 311.996094 73.597656 L 300.445312 73.597656 Z M 300.445312 62.042969 " clip-rule="nonzero"/></clipPath><clipPath id="84b10faf9f"><path d="M 306.21875 62.042969 C 303.03125 62.042969 300.445312 64.628906 300.445312 67.820312 C 300.445312 71.011719 303.03125 73.597656 306.21875 73.597656 C 309.410156 73.597656 311.996094 71.011719 311.996094 67.820312 C 311.996094 64.628906 309.410156 62.042969 306.21875 62.042969 Z M 306.21875 62.042969 " clip-rule="nonzero"/></clipPath><clipPath id="be72de2dfc"><path d="M 316.535156 62.042969 L 328.089844 62.042969 L 328.089844 73.597656 L 316.535156 73.597656 Z M 316.535156 62.042969 " clip-rule="nonzero"/></clipPath><clipPath id="1d64f9e59c"><path d="M 322.3125 62.042969 C 319.121094 62.042969 316.535156 64.628906 316.535156 67.820312 C 316.535156 71.011719 319.121094 73.597656 322.3125 73.597656 C 325.5 73.597656 328.089844 71.011719 328.089844 67.820312 C 328.089844 64.628906 325.5 62.042969 322.3125 62.042969 Z M 322.3125 62.042969 " clip-rule="nonzero"/></clipPath><clipPath id="7bd9229a54"><path d="M 217.296875 55.398438 L 256.496094 55.398438 L 256.496094 94.601562 L 217.296875 94.601562 Z M 217.296875 55.398438 " clip-rule="nonzero"/></clipPath><clipPath id="c639e9073a"><path d="M 236.898438 55.398438 C 226.074219 55.398438 217.296875 64.175781 217.296875 75 C 217.296875 85.824219 226.074219 94.601562 236.898438 94.601562 C 247.722656 94.601562 256.496094 85.824219 256.496094 75 C 256.496094 64.175781 247.722656 55.398438 236.898438 55.398438 Z M 236.898438 55.398438 " clip-rule="nonzero"/></clipPath><clipPath id="cf224663d9"><path d="M 222.96875 63.445312 L 234.523438 63.445312 L 234.523438 75 L 222.96875 75 Z M 222.96875 63.445312 " clip-rule="nonzero"/></clipPath><clipPath id="6208712ea9"><path d="M 228.746094 63.445312 C 225.554688 63.445312 222.96875 66.03125 222.96875 69.222656 C 222.96875 72.414062 225.554688 75 228.746094 75 C 231.933594 75 234.523438 72.414062 234.523438 69.222656 C 234.523438 66.03125 231.933594 63.445312 228.746094 63.445312 Z M 228.746094 63.445312 " clip-rule="nonzero"/></clipPath><clipPath id="3a6f636a73"><path d="M 239.058594 63.445312 L 250.613281 63.445312 L 250.613281 75 L 239.058594 75 Z M 239.058594 63.445312 " clip-rule="nonzero"/></clipPath><clipPath id="5171cf4ef6"><path d="M 244.835938 63.445312 C 241.644531 63.445312 239.058594 66.03125 239.058594 69.222656 C 239.058594 72.414062 241.644531 75 244.835938 75 C 248.023438 75 250.613281 72.414062 250.613281 69.222656 C 250.613281 66.03125 248.023438 63.445312 244.835938 63.445312 Z M 244.835938 63.445312 " clip-rule="nonzero"/></clipPath></defs><g fill="#122e83" fill-opacity="1"><g transform="translate(9.1458, 93.75666)"><g><path d="M 0.859375 0 L 16.9375 -39.609375 L 17.75 -39.609375 L 33.828125 0 L 25.234375 0 L 23.6875 -4.109375 L 11.015625 -4.109375 L 9.515625 0 Z M 13.796875 -11.28125 L 20.84375 -11.28125 L 17.375 -21.21875 Z M 13.796875 -11.28125 "/></g></g></g><g fill="#122e83" fill-opacity="1"><g transform="translate(42.820284, 93.75666)"><g><path d="M 28.59375 -29.34375 C 27.882812 -29.738281 27.019531 -30.113281 26 -30.46875 C 24.988281 -30.820312 23.644531 -31 21.96875 -31 C 19.789062 -31 17.9375 -30.578125 16.40625 -29.734375 C 14.875 -28.898438 13.644531 -27.789062 12.71875 -26.40625 C 11.789062 -25.019531 11.164062 -23.492188 10.84375 -21.828125 C 10.53125 -20.171875 10.53125 -18.515625 10.84375 -16.859375 C 11.164062 -15.203125 11.789062 -13.675781 12.71875 -12.28125 C 13.644531 -10.894531 14.875 -9.785156 16.40625 -8.953125 C 17.9375 -8.117188 19.789062 -7.703125 21.96875 -7.703125 C 23.644531 -7.703125 25.113281 -7.894531 26.375 -8.28125 C 27.644531 -8.675781 28.632812 -9.050781 29.34375 -9.40625 L 30.359375 -1.5 C 29.179688 -1.03125 27.828125 -0.644531 26.296875 -0.34375 C 24.765625 -0.0390625 23.320312 0.109375 21.96875 0.109375 C 18.726562 0.109375 15.894531 -0.429688 13.46875 -1.515625 C 11.039062 -2.609375 9.015625 -4.082031 7.390625 -5.9375 C 5.773438 -7.789062 4.566406 -9.863281 3.765625 -12.15625 C 2.960938 -14.457031 2.5625 -16.835938 2.5625 -19.296875 C 2.5625 -21.753906 2.960938 -24.128906 3.765625 -26.421875 C 4.566406 -28.722656 5.773438 -30.800781 7.390625 -32.65625 C 9.015625 -34.507812 11.039062 -35.976562 13.46875 -37.0625 C 15.894531 -38.15625 18.726562 -38.703125 21.96875 -38.703125 C 24.75 -38.703125 27.257812 -38.203125 29.5 -37.203125 Z M 28.59375 -29.34375 "/></g></g></g><g fill="#122e83" fill-opacity="1"><g transform="translate(74.99822, 93.75666)"><g><path d="M 0.859375 0 L 16.9375 -39.609375 L 17.75 -39.609375 L 33.828125 0 L 25.234375 0 L 23.6875 -4.109375 L 11.015625 -4.109375 L 9.515625 0 Z M 13.796875 -11.28125 L 20.84375 -11.28125 L 17.375 -21.21875 Z M 13.796875 -11.28125 "/></g></g></g><g fill="#122e83" fill-opacity="1"><g transform="translate(109.902184, 93.75666)"><g><path d="M 15.65625 -38.21875 C 18.832031 -38.21875 21.613281 -37.679688 24 -36.609375 C 26.382812 -35.546875 28.367188 -34.101562 29.953125 -32.28125 C 31.546875 -30.46875 32.742188 -28.421875 33.546875 -26.140625 C 34.347656 -23.859375 34.75 -21.515625 34.75 -19.109375 C 34.75 -16.703125 34.347656 -14.359375 33.546875 -12.078125 C 32.742188 -9.796875 31.546875 -7.742188 29.953125 -5.921875 C 28.367188 -4.109375 26.382812 -2.664062 24 -1.59375 C 21.613281 -0.53125 18.832031 0 15.65625 0 L 4.28125 0 L 4.28125 -38.21875 Z M 15.65625 -30.578125 L 11.921875 -30.578125 L 11.921875 -7.640625 L 15.65625 -7.640625 C 17.800781 -7.640625 19.628906 -8.050781 21.140625 -8.875 C 22.648438 -9.695312 23.859375 -10.789062 24.765625 -12.15625 C 25.679688 -13.53125 26.289062 -15.035156 26.59375 -16.671875 C 26.894531 -18.316406 26.894531 -19.945312 26.59375 -21.5625 C 26.289062 -23.1875 25.679688 -24.679688 24.765625 -26.046875 C 23.859375 -27.421875 22.648438 -28.519531 21.140625 -29.34375 C 19.628906 -30.164062 17.800781 -30.578125 15.65625 -30.578125 Z M 15.65625 -30.578125 "/></g></g></g><g fill="#122e83" fill-opacity="1"><g transform="translate(147.532192, 93.75666)"><g><path d="M 11.921875 0 L 4.28125 0 L 4.28125 -38.171875 L 19.296875 -38.171875 C 21.429688 -38.171875 23.253906 -37.738281 24.765625 -36.875 C 26.285156 -36.019531 27.488281 -34.898438 28.375 -33.515625 C 29.269531 -32.128906 29.867188 -30.585938 30.171875 -28.890625 C 30.472656 -27.203125 30.472656 -25.519531 30.171875 -23.84375 C 29.867188 -22.164062 29.265625 -20.628906 28.359375 -19.234375 C 27.453125 -17.847656 26.238281 -16.726562 24.71875 -15.875 C 23.207031 -15.019531 21.398438 -14.59375 19.296875 -14.59375 L 11.921875 -14.59375 Z M 11.921875 -22.015625 L 18.65625 -22.015625 C 19.6875 -22.015625 20.503906 -22.300781 21.109375 -22.875 C 21.710938 -23.445312 22.125 -24.160156 22.34375 -25.015625 C 22.5625 -25.867188 22.5625 -26.722656 22.34375 -27.578125 C 22.125 -28.429688 21.710938 -29.144531 21.109375 -29.71875 C 20.503906 -30.289062 19.6875 -30.578125 18.65625 -30.578125 L 11.921875 -30.578125 Z M 11.921875 -22.015625 "/></g></g></g><g fill="#122e83" fill-opacity="1"><g transform="translate(179.76358, 93.75666)"><g><path d="M 23.3125 0 L 15.609375 -14.59375 L 11.921875 -14.59375 L 11.921875 0 L 4.28125 0 L 4.28125 -38.21875 L 19.34375 -38.21875 C 21.625 -38.21875 23.554688 -37.742188 25.140625 -36.796875 C 26.734375 -35.859375 27.972656 -34.628906 28.859375 -33.109375 C 29.753906 -31.597656 30.304688 -29.957031 30.515625 -28.1875 C 30.734375 -26.425781 30.601562 -24.695312 30.125 -23 C 29.644531 -21.3125 28.820312 -19.816406 27.65625 -18.515625 C 26.5 -17.222656 24.976562 -16.304688 23.09375 -15.765625 L 31.96875 0 Z M 11.921875 -22.015625 L 18.65625 -22.015625 C 19.6875 -22.015625 20.515625 -22.300781 21.140625 -22.875 C 21.765625 -23.445312 22.179688 -24.160156 22.390625 -25.015625 C 22.609375 -25.867188 22.609375 -26.722656 22.390625 -27.578125 C 22.179688 -28.429688 21.765625 -29.144531 21.140625 -29.71875 C 20.515625 -30.289062 19.6875 -30.578125 18.65625 -30.578125 L 11.921875 -30.578125 Z M 11.921875 -22.015625 "/></g></g></g><g fill="#122e83" fill-opacity="1"><g transform="translate(212.531194, 93.75666)"><g/></g></g><g fill="#122e83" fill-opacity="1"><g transform="translate(227.711486, 93.75666)"><g/></g></g><g fill="#122e83" fill-opacity="1"><g transform="translate(242.891778, 93.75666)"><g/></g></g><g fill="#122e83" fill-opacity="1"><g transform="translate(258.082804, 93.75666)"><g><path d="M 4.28125 0 L 4.28125 -38.265625 L 19.40625 -38.265625 C 21.6875 -38.265625 23.644531 -37.765625 25.28125 -36.765625 C 26.925781 -35.773438 28.179688 -34.40625 29.046875 -32.65625 C 29.921875 -30.914062 30.320312 -28.921875 30.25 -26.671875 C 30.21875 -25.242188 29.925781 -23.832031 29.375 -22.4375 C 28.820312 -21.050781 27.941406 -19.953125 26.734375 -19.140625 C 27.972656 -18.285156 28.941406 -17.171875 29.640625 -15.796875 C 30.335938 -14.421875 30.6875 -12.988281 30.6875 -11.5 C 30.6875 -9.351562 30.175781 -7.414062 29.15625 -5.6875 C 28.144531 -3.957031 26.78125 -2.578125 25.0625 -1.546875 C 23.351562 -0.515625 21.46875 0 19.40625 0 Z M 11.96875 -30.625 L 11.96875 -22.9375 L 18.765625 -22.9375 C 19.867188 -22.9375 20.734375 -23.316406 21.359375 -24.078125 C 21.984375 -24.847656 22.296875 -25.75 22.296875 -26.78125 C 22.296875 -27.851562 21.984375 -28.757812 21.359375 -29.5 C 20.734375 -30.25 19.867188 -30.625 18.765625 -30.625 Z M 11.96875 -15.28125 L 11.96875 -7.640625 L 18.765625 -7.640625 C 19.867188 -7.640625 20.785156 -8.015625 21.515625 -8.765625 C 22.242188 -9.515625 22.609375 -10.425781 22.609375 -11.5 C 22.609375 -12.5625 22.242188 -13.457031 21.515625 -14.1875 C 20.785156 -14.914062 19.867188 -15.28125 18.765625 -15.28125 Z M 11.96875 -15.28125 "/></g></g></g><g fill="#122e83" fill-opacity="1"><g transform="translate(291.287642, 93.75666)"><g/></g></g><g fill="#122e83" fill-opacity="1"><g transform="translate(306.467934, 93.75666)"><g/></g></g><g fill="#122e83" fill-opacity="1"><g transform="translate(321.648226, 93.75666)"><g/></g></g><g fill="#122e83" fill-opacity="1"><g transform="translate(336.839252, 93.75666)"><g><path d="M 18.234375 0 L 10.578125 0 L 10.578125 -30.578125 L 1.0625 -30.578125 L 1.0625 -38.171875 L 27.75 -38.171875 L 27.75 -30.578125 L 18.234375 -30.578125 Z M 18.234375 0 "/></g></g></g><g clip-path="url(#f59c4914a3)"><g clip-path="url(#2aebb8edfd)"><path fill="#122e83" d="M 294.773438 53.996094 L 333.972656 53.996094 L 333.972656 93.195312 L 294.773438 93.195312 Z M 294.773438 53.996094 " fill-opacity="1" fill-rule="nonzero"/></g></g><g clip-path="url(#deb6cb7962)"><g clip-path="url(#84b10faf9f)"><path fill="#f9fafb" d="M 300.445312 62.042969 L 311.996094 62.042969 L 311.996094 73.597656 L 300.445312 73.597656 Z M 300.445312 62.042969 " fill-opacity="1" fill-rule="nonzero"/></g></g><g clip-path="url(#be72de2dfc)"><g clip-path="url(#1d64f9e59c)"><path fill="#f9fafb" d="M 316.535156 62.042969 L 328.089844 62.042969 L 328.089844 73.597656 L 316.535156 73.597656 Z M 316.535156 62.042969 " fill-opacity="1" fill-rule="nonzero"/></g></g><g clip-path="url(#7bd9229a54)"><g clip-path="url(#c639e9073a)"><path fill="#122e83" d="M 217.296875 55.398438 L 256.496094 55.398438 L 256.496094 94.601562 L 217.296875 94.601562 Z M 217.296875 55.398438 " fill-opacity="1" fill-rule="nonzero"/></g></g><g clip-path="url(#cf224663d9)"><g clip-path="url(#6208712ea9)"><path fill="#f9fafb" d="M 222.96875 63.445312 L 234.523438 63.445312 L 234.523438 75 L 222.96875 75 Z M 222.96875 63.445312 " fill-opacity="1" fill-rule="nonzero"/></g></g><g clip-path="url(#3a6f636a73)"><g clip-path="url(#5171cf4ef6)"><path fill="#f9fafb" d="M 239.058594 63.445312 L 250.613281 63.445312 L 250.613281 75 L 239.058594 75 Z M 239.058594 63.445312 " fill-opacity="1" fill-rule="nonzero"/></g></g></svg>